<svg width="52" height="52" viewBox="0 0 52 52" fill="none" xmlns="http://www.w3.org/2000/svg">
<rect x="1" y="1" width="50" height="50" stroke="#0D0D0D"/>
<path d="M26.4584 32.16C25.8984 32.16 25.3518 32.0907 24.8184 31.952C24.2851 31.808 23.7998 31.5973 23.3624 31.32C22.9304 31.0373 22.5704 30.688 22.2824 30.272C21.9944 29.8507 21.8184 29.36 21.7544 28.8H23.7704C23.8558 29.1893 24.0238 29.5173 24.2744 29.784C24.5251 30.0507 24.8371 30.2533 25.2104 30.392C25.5891 30.5307 26.0024 30.6 26.4504 30.6C26.9304 30.6 27.3624 30.536 27.7464 30.408C28.1358 30.28 28.4424 30.0933 28.6664 29.848C28.8958 29.6027 29.0104 29.3013 29.0104 28.944C29.0104 28.6293 28.9278 28.3627 28.7624 28.144C28.5971 27.9253 28.3651 27.7467 28.0664 27.608C27.7731 27.464 27.4291 27.3493 27.0344 27.264L24.9064 26.8C24.0478 26.624 23.3678 26.2827 22.8664 25.776C22.3651 25.2693 22.1091 24.5947 22.0984 23.752C22.0931 23.0533 22.2771 22.4453 22.6504 21.928C23.0291 21.4053 23.5438 21.0027 24.1944 20.72C24.8451 20.432 25.5811 20.288 26.4024 20.288C27.3624 20.288 28.1704 20.4453 28.8264 20.76C29.4878 21.0693 29.9864 21.4853 30.3224 22.008C30.6638 22.5307 30.8371 23.104 30.8424 23.728H28.8744C28.8264 23.2693 28.6878 22.904 28.4584 22.632C28.2344 22.36 27.9464 22.1653 27.5944 22.048C27.2424 21.9307 26.8531 21.872 26.4264 21.872C26.1064 21.872 25.8078 21.9093 25.5304 21.984C25.2531 22.0587 25.0104 22.168 24.8024 22.312C24.5944 22.456 24.4318 22.632 24.3144 22.84C24.2024 23.0427 24.1464 23.2747 24.1464 23.536C24.1464 23.9093 24.2691 24.2133 24.5144 24.448C24.7651 24.6773 25.2318 24.872 25.9144 25.032L27.9944 25.496C28.6398 25.624 29.1598 25.816 29.5544 26.072C29.9491 26.328 30.2504 26.6213 30.4584 26.952C30.6664 27.2773 30.8051 27.6107 30.8744 27.952C30.9438 28.2933 30.9784 28.6187 30.9784 28.928C30.9784 29.5307 30.7918 30.0773 30.4184 30.568C30.0504 31.0587 29.5278 31.448 28.8504 31.736C28.1784 32.0187 27.3811 32.16 26.4584 32.16Z" fill="#0D0D0D"/>
</svg>
